<svg version="1.1" id="iconuser" class="header-inline-icon" xmlns:x="&amp;ns_extend;" xmlns:i="&amp;ns_ai;" xmlns:graph="&amp;ns_graphs;" xmlns="http://www.w3.org/2000/svg" xmlns:xlink="http://www.w3.org/1999/xlink" x="0px" y="0px" viewBox="0 0 1020 1020" style="enable-background:new 0 0 1020 1020; width: 22px; height: 21px;" xml:space="preserve">
<path class="st0" d="M980.2,310.6c-25.5-60.8-62.1-115.4-108.8-162s-101.2-83.3-162-108.8C646.5,13.4,579.4,0,510,0
	S373.5,13.4,310.6,39.8c-60.8,25.5-115.4,62.1-162,108.8c-46.7,46.7-83.3,101.2-108.8,162C13.4,373.5,0,440.6,0,510
	s13.4,136.5,39.8,199.4c25.5,60.8,62.1,115.4,108.8,162c46.7,46.7,101.2,83.3,162,108.8c62.9,26.4,130,39.8,199.4,39.8
	s136.5-13.4,199.4-39.8c60.8-25.5,115.4-62.1,162-108.8c46.7-46.7,83.3-101.2,108.8-162c26.4-62.9,39.8-130,39.8-199.4
	S1006.6,373.5,980.2,310.6z M514.7,241.7c88.1,0,159.8,71.7,159.8,159.8c0,88.1-71.7,159.8-159.8,159.8
	c-88.1,0-159.8-71.7-159.8-159.8C354.9,313.4,426.6,241.7,514.7,241.7z M514.7,628.5c137.1,0,256.5,97,286.2,231.6
	C723.9,926,620.8,962.3,510,962.3c-103,0-202.8-34.7-281.6-97.8C254,727.4,373.5,628.5,514.7,628.5z M622.6,592.1
	c29.3-16.9,54-39.8,72.5-67c24.3-35.8,37.1-78.5,37.1-123.5c0-29-5.8-57.3-17.3-84.1c-11.1-25.8-26.9-49.1-46.9-69.2
	c-20.1-20.1-43.3-35.9-69.2-46.9C572,189.8,543.7,184,514.7,184s-57.3,5.8-84.1,17.3c-25.8,11.1-49.1,26.9-69.2,46.9
	c-20.1,20.1-35.9,43.3-46.9,69.2c-11.5,26.8-17.3,55.1-17.3,84.1c0,43.3,12.8,85.3,37.1,121.7c18.9,28.4,43.8,51.8,72.8,68.8
	c-52.2,16.5-100.2,45.7-139.9,85.4c-41.7,41.7-71.8,92.4-87.7,147.7C97.7,737.6,53,626.3,53,510C53,260.6,255.9,57.7,505.3,57.7
	S957.5,260.6,957.5,510v0.2l0,0.2c4.2,112.9-34.2,220.7-108.2,305.4c-17.9-53.4-48.4-102-88.8-141.4
	C721.4,636.4,674.1,608.2,622.6,592.1z"></path>
</svg>