<svg width="160" height="16" viewBox="0 0 160 16" fill="none" xmlns="http://www.w3.org/2000/svg">
<g clip-path="url(#clip0_247_23)">
<path d="M13.7472 5.23198C13.7472 2.23998 11.7608 0.0319824 8.54468 0.0319824H1.6711V7.83998H0V10.496H1.6711V15.296H4.30387V10.496H7.56725L10.5941 15.296H13.9679L10.3577 9.85598C12.3125 9.19998 13.7472 7.50398 13.7472 5.23198ZM4.39846 7.82398V2.70398H8.4028C10.3104 2.70398 11.1144 3.91998 11.1144 5.23198C11.1144 6.60798 10.2316 7.83998 8.4028 7.83998L4.39846 7.82398Z" fill="white"/>
<path d="M20.8098 15.344H23.4426V0.0800171H20.8098V15.344Z" fill="white"/>
<path d="M34.9513 15.28H37.5841V2.70398H41.8249V0.0319824H30.7893V2.70398H35.0301V15.28H34.9513Z" fill="white"/>
<path d="M49.124 0.0319824V9.11998C49.124 12.704 51.6937 15.696 55.5247 15.696C59.3556 15.696 61.9253 12.704 61.9253 9.11998V0.0319824H59.2137V8.46398C59.2137 11.296 57.5426 12.928 55.4458 12.928C53.3491 12.928 51.678 11.232 51.678 8.46398V0.0319824H49.124Z" fill="white"/>
<path d="M70.6435 0.0319824V2.55998H73.9068L68.7043 15.296H71.4948L72.6141 12.464H78.6994L79.8187 15.296H82.688L76.6342 0.0319824H70.6435ZM73.5915 9.90398L75.6883 4.46398L77.785 9.90398H73.5915Z" fill="white"/>
<path d="M100.818 8.97598H98.1851V12.608H92.5096V0.0319824H89.8611V15.296H100.818V8.97598Z" fill="white"/>
<path d="M111.459 4.464C111.459 3.568 112.263 2.448 114.486 2.448C115.842 2.448 117.056 2.928 118.412 4.224L120.398 2.368C118.963 0.816 117.024 0 114.644 0C111.38 0 108.732 1.856 108.732 4.624C108.732 10.88 118.017 7.536 118.017 10.96C118.017 12.416 116.583 13.248 114.565 13.248C112.894 13.248 111.38 12.352 110.324 11.232L108.306 13.168C110.151 15.2 112.468 16 114.486 16C117.749 16 120.808 14.064 120.808 10.88C120.729 4.464 111.459 7.904 111.459 4.464Z" fill="white"/>
<path d="M131.607 10.672C130.33 10.672 129.274 11.728 129.274 13.12C129.274 14.416 130.314 15.568 131.607 15.568C132.884 15.568 133.94 14.512 133.94 13.12C133.94 11.728 132.9 10.672 131.607 10.672Z" fill="white"/>
<path d="M144.629 10.672C143.352 10.672 142.296 11.728 142.296 13.12C142.296 14.416 143.336 15.568 144.629 15.568C145.906 15.568 146.962 14.512 146.962 13.12C146.962 11.728 145.906 10.672 144.629 10.672Z" fill="white"/>
<path d="M157.683 10.672C156.406 10.672 155.349 11.728 155.349 13.12C155.349 14.416 156.39 15.568 157.683 15.568C158.96 15.568 160.016 14.512 160.016 13.12C160.016 11.728 158.96 10.672 157.683 10.672Z" fill="white"/>
</g>
<defs>
<clipPath id="clip0_247_23">
<rect width="160" height="16" fill="white"/>
</clipPath>
</defs>
</svg>
