<svg version="1.1" id="iconsearch" class="header-inline-icon" xmlns:x="&amp;ns_extend;" xmlns:i="&amp;ns_ai;" xmlns:graph="&amp;ns_graphs;" xmlns="http://www.w3.org/2000/svg" xmlns:xlink="http://www.w3.org/1999/xlink" x="0px" y="0px" viewBox="0 0 1020 1082.9" style="enable-background:new 0 0 1020 1082.9; width: 21px; height: 22px;" xml:space="preserve">
<path class="st0" d="M1010.1,1025.9L747.8,758.7c40.3-39.6,71.9-85.5,94.1-136.6c24.1-55.5,36.4-115.4,36.4-178
	c0-59.8-11.7-117.9-34.9-172.8c-22.3-52.8-54.1-100.3-94.7-141.2C708.3,89.4,661.3,57.4,609.1,35c-54-23.2-111.2-35-169.9-35
	c-58.7,0-115.9,12-170,35.8c-52.2,22.9-99.1,55.5-139.7,97C89,174.2,57.1,222.3,34.8,275.6C11.7,330.9,0,389.3,0,449.1
	C0,509,11.7,567.1,34.9,621.9c22.3,52.8,54.1,100.3,94.7,141.2c40.5,40.8,87.5,72.8,139.7,95.2c54,23.2,111.2,35,169.9,35
	c49.5,0,98.1-8.4,144.3-24.9c41-14.6,79.4-35.3,114.2-61.6L961,1074.9l0,0l0,0c7.9,7.9,16.4,7.9,22,7.9c5.4,0,13.6,0,21.3-7.2
	c9.1-6.3,14.5-14.9,15.5-24.3C1020.8,1042.3,1017.2,1033,1010.1,1025.9z M808.4,449.1c0,206.4-165.6,374.2-369.3,374.2
	S69.9,655.5,69.9,449.1S235.5,74.9,439.2,74.9S808.4,242.8,808.4,449.1z"></path>
</svg>