<svg version="1.1" id="iconcar" class="header-inline-icon" xmlns:x="&amp;ns_extend;" xmlns:i="&amp;ns_ai;" xmlns:graph="&amp;ns_graphs;" xmlns="http://www.w3.org/2000/svg" xmlns:xlink="http://www.w3.org/1999/xlink" x="0px" y="0px" viewBox="0 0 1020 1020" style="enable-background:new 0 0 1020 1020; width: 22px; height: 21px;" xml:space="preserve">
<path class="st0" d="M998.4,272.4c-17.2-19.2-41.3-30.2-66.3-30.2H786c-9-65-39.8-124.8-87.4-169.2C648.3,25.9,583.3,0,515.6,0h-9.7 C437.7,0,372,25.9,321.1,72.9c-48.7,45-79,104.8-85.9,169.3H89.4H74.8h-1.1l-1.1,0.2c-23.7,5.3-44.2,19.5-57.7,40 C1.5,303.1-3.1,327.5,2.1,351.1l106.5,542.3c10.5,52.4,57.4,90.4,111.5,90.4H811c54.1,0,101-38,111.5-90.4l0-0.1l0-0.1l96.9-542.5 l0.2-0.9V349v-14C1021.9,312.5,1014.4,290.3,998.4,272.4z M304.1,242.2c14.5-98.3,101-173.7,201.9-173.7h9.7 c103,0,187.9,73.9,201.9,173.7H304.1z M954.1,341.6l1.1,1.1L849.7,879.9c-3.8,19.2-23.8,35.5-43.5,35.5H215.3 c-19.7,0-39.6-16.3-43.5-35.6L65.5,338.5c0.4-9.6,6.7-23.8,20.4-27.9h3.5h150.1h537.6h150.1c13.9,0,23.9,10.1,23.9,23.9v4.1 L954.1,341.6z"></path>
</svg>